<svg width="178" height="14" viewBox="0 0 178 14" fill="none" xmlns="http://www.w3.org/2000/svg">
<path d="M9.15631 10.6323H4.96935L4.23815 13H0.973886L5.6222 0.325945H8.49475L13.1779 13H9.89621L9.15631 10.6323ZM5.70054 8.27334H8.42512L7.05848 3.87747L5.70054 8.27334ZM18.1222 0.325945L20.9512 9.14381L23.7715 0.325945H27.7931V13H24.729V10.0404L25.025 3.98192L21.9609 13H19.9414L16.8687 3.97322L17.1646 10.0404V13H14.1093V0.325945H18.1222ZM37.0984 10.6323H32.9115L32.1803 13H28.916L33.5643 0.325945H36.4369L41.12 13H37.8383L37.0984 10.6323ZM33.6427 8.27334H36.3672L35.0006 3.87747L33.6427 8.27334ZM45.4811 10.6497H51.5395V13H41.6684V11.3896L47.7095 2.68492H41.6336V0.325945H51.4786V1.89279L45.4811 10.6497ZM56.1878 13H53.1412V0.325945H56.1878V13ZM68.8967 13H65.8588L61.3671 5.11353V13H58.3118V0.325945H61.3671L65.8501 8.21241V0.325945H68.8967V13ZM81.2052 11.4332C80.7351 11.9554 80.0475 12.3762 79.1422 12.6953C78.2369 13.0145 77.2445 13.1741 76.1652 13.1741C74.5055 13.1741 73.1794 12.6663 72.1871 11.6508C71.1948 10.6352 70.6638 9.22216 70.5941 7.41158L70.5854 6.31478C70.5854 5.06711 70.806 3.97902 71.247 3.05052C71.688 2.11621 72.3177 1.39953 73.1359 0.900456C73.96 0.395583 74.9117 0.143146 75.9911 0.143146C77.5695 0.143146 78.794 0.505843 79.6644 1.23123C80.5407 1.95082 81.0514 3.02731 81.1965 4.46068H78.2543C78.1498 3.7527 77.9235 3.24783 77.5753 2.94606C77.2271 2.6443 76.7339 2.49342 76.0955 2.49342C75.3295 2.49342 74.7376 2.81839 74.3198 3.46834C73.9019 4.1183 73.6901 5.0468 73.6843 6.25385V7.01987C73.6843 8.28495 73.899 9.23666 74.3285 9.87501C74.7637 10.5076 75.4456 10.8238 76.3741 10.8238C77.1691 10.8238 77.761 10.6468 78.1498 10.2928V8.32557H76.0259V6.22774H81.2052V11.4332ZM91.4332 0.325945L94.2622 9.14381L97.0826 0.325945H101.104V13H98.0401V10.0404L98.336 3.98192L95.272 13H93.2525L90.1797 3.97322L90.4757 10.0404V13H87.4203V0.325945H91.4332ZM113.787 6.92411C113.787 8.16018 113.558 9.25407 113.099 10.2058C112.641 11.1575 111.988 11.8916 111.141 12.4081C110.299 12.9188 109.339 13.1741 108.259 13.1741C107.18 13.1741 106.223 12.9275 105.387 12.4342C104.551 11.9351 103.898 11.2242 103.428 10.3015C102.964 9.37884 102.72 8.31977 102.697 7.12432V6.41054C102.697 5.16866 102.923 4.07477 103.376 3.12886C103.835 2.17715 104.487 1.44305 105.335 0.92657C106.188 0.410091 107.157 0.151851 108.242 0.151851C109.316 0.151851 110.273 0.407189 111.115 0.917865C111.956 1.42854 112.609 2.15684 113.073 3.10275C113.543 4.04286 113.781 5.12224 113.787 6.3409V6.92411ZM110.679 6.39313C110.679 5.13385 110.468 4.17923 110.044 3.52928C109.626 2.87352 109.025 2.54565 108.242 2.54565C106.71 2.54565 105.9 3.69467 105.813 5.99271L105.805 6.92411C105.805 8.16599 106.011 9.1206 106.423 9.78796C106.835 10.4553 107.447 10.789 108.259 10.789C109.031 10.789 109.626 10.4611 110.044 9.80537C110.462 9.14962 110.674 8.20661 110.679 6.97634V6.39313ZM125.303 0.325945V8.62153C125.303 9.56164 125.103 10.377 124.703 11.0676C124.302 11.7523 123.728 12.2746 122.979 12.6344C122.23 12.9942 121.345 13.1741 120.324 13.1741C118.781 13.1741 117.565 12.7737 116.677 11.9728C115.789 11.172 115.336 10.0752 115.319 8.68246V0.325945H118.392V8.7434C118.427 10.1303 119.071 10.8238 120.324 10.8238C120.957 10.8238 121.435 10.6497 121.76 10.3015C122.085 9.95335 122.248 9.38755 122.248 8.60412V0.325945H125.303ZM137.803 13H134.765L130.274 5.11353V13H127.218V0.325945H130.274L134.757 8.21241V0.325945H137.803V13ZM149.424 2.68492H145.62V13H142.565V2.68492H138.83V0.325945H149.424V2.68492ZM156.875 10.6323H152.688L151.957 13H148.693L153.341 0.325945H156.214L160.897 13H157.615L156.875 10.6323ZM153.419 8.27334H156.144L154.777 3.87747L153.419 8.27334ZM165.084 13H162.037V0.325945H165.084V13ZM177.793 13H174.755L170.263 5.11353V13H167.208V0.325945H170.263L174.746 8.21241V0.325945H177.793V13Z" fill="#0C0E36"/>
</svg>
